<mxfile host="app.diagrams.net" modified="2021-08-29T13:05:04.128Z" agent="5.0 (Windows NT 10.0; Win64; x64) AppleWebKit/537.36 (KHTML, like Gecko) Chrome/92.0.4515.159 Safari/537.36" etag="EEOFSuhR-tbxnj2XaiVa" version="15.0.3" type="github">
  <diagram id="Z1Sn5Sfeux0z1UHSXYgO" name="Page-1">
    <mxGraphModel dx="2310" dy="3082" grid="1" gridSize="10" guides="1" tooltips="1" connect="1" arrows="1" fold="1" page="1" pageScale="1" pageWidth="827" pageHeight="1169" math="0" shadow="0">
      <root>
        <mxCell id="0" />
        <mxCell id="1" parent="0" />
        <mxCell id="fFGAgTN2hcNtL7oKuzCr-94" value="CUA-API" style="swimlane;" vertex="1" parent="1">
          <mxGeometry x="-790" y="-1540" width="1000" height="740" as="geometry" />
        </mxCell>
        <mxCell id="fFGAgTN2hcNtL7oKuzCr-53" value="API-CARD Folder" style="swimlane;" vertex="1" parent="fFGAgTN2hcNtL7oKuzCr-94">
          <mxGeometry x="24.5" y="140" width="940" height="500" as="geometry" />
        </mxCell>
        <mxCell id="fFGAgTN2hcNtL7oKuzCr-38" value="APP Folder" style="swimlane;" vertex="1" parent="fFGAgTN2hcNtL7oKuzCr-53">
          <mxGeometry x="140" y="40" width="780" height="430" as="geometry" />
        </mxCell>
        <mxCell id="fFGAgTN2hcNtL7oKuzCr-17" value="SRC Folder" style="swimlane;" vertex="1" parent="fFGAgTN2hcNtL7oKuzCr-38">
          <mxGeometry x="330" y="160" width="380" height="243" as="geometry" />
        </mxCell>
        <mxCell id="fFGAgTN2hcNtL7oKuzCr-1" value="" style="verticalLabelPosition=bottom;html=1;verticalAlign=top;align=center;strokeColor=none;fillColor=#00BEF2;shape=mxgraph.azure.sql_reporting;" vertex="1" parent="fFGAgTN2hcNtL7oKuzCr-17">
          <mxGeometry x="24" y="42.400000000000034" width="60" height="70" as="geometry" />
        </mxCell>
        <mxCell id="fFGAgTN2hcNtL7oKuzCr-2" value="database.js" style="text;html=1;strokeColor=none;fillColor=none;align=center;verticalAlign=middle;whiteSpace=wrap;rounded=0;" vertex="1" parent="fFGAgTN2hcNtL7oKuzCr-17">
          <mxGeometry x="34" y="112.40000000000009" width="40" height="20" as="geometry" />
        </mxCell>
        <mxCell id="fFGAgTN2hcNtL7oKuzCr-4" value="" style="verticalLabelPosition=bottom;aspect=fixed;html=1;verticalAlign=top;strokeColor=none;align=center;outlineConnect=0;shape=mxgraph.citrix.middleware;" vertex="1" parent="fFGAgTN2hcNtL7oKuzCr-17">
          <mxGeometry x="124" y="42.400000000000034" width="114" height="68" as="geometry" />
        </mxCell>
        <mxCell id="fFGAgTN2hcNtL7oKuzCr-5" value="middleware.js" style="text;html=1;strokeColor=none;fillColor=none;align=center;verticalAlign=middle;whiteSpace=wrap;rounded=0;" vertex="1" parent="fFGAgTN2hcNtL7oKuzCr-17">
          <mxGeometry x="161" y="110.40000000000009" width="40" height="20" as="geometry" />
        </mxCell>
        <mxCell id="fFGAgTN2hcNtL7oKuzCr-6" value="" style="aspect=fixed;pointerEvents=1;shadow=0;dashed=0;html=1;strokeColor=none;labelPosition=center;verticalLabelPosition=bottom;verticalAlign=top;align=center;fillColor=#00188D;shape=mxgraph.mscae.enterprise.code_file" vertex="1" parent="fFGAgTN2hcNtL7oKuzCr-17">
          <mxGeometry x="274" y="39.99999999999994" width="69" height="70.4" as="geometry" />
        </mxCell>
        <mxCell id="fFGAgTN2hcNtL7oKuzCr-7" value="services.js(Service)" style="text;html=1;strokeColor=none;fillColor=none;align=center;verticalAlign=middle;whiteSpace=wrap;rounded=0;" vertex="1" parent="fFGAgTN2hcNtL7oKuzCr-17">
          <mxGeometry x="288.5" y="110.40000000000009" width="40" height="20" as="geometry" />
        </mxCell>
        <mxCell id="fFGAgTN2hcNtL7oKuzCr-10" value="sql.js" style="text;html=1;strokeColor=none;fillColor=none;align=center;verticalAlign=middle;whiteSpace=wrap;rounded=0;" vertex="1" parent="fFGAgTN2hcNtL7oKuzCr-17">
          <mxGeometry x="34" y="210.4000000000001" width="40" height="20" as="geometry" />
        </mxCell>
        <mxCell id="fFGAgTN2hcNtL7oKuzCr-12" value="" style="shape=image;verticalLabelPosition=bottom;labelBackgroundColor=#ffffff;verticalAlign=top;aspect=fixed;imageAspect=0;image=data:image/png,iVBORw0KGgoAAAANSUhEUgAAA8AAAAPACAMAAADNCOCpAAAABGdBTUEAALGPC/xhBQAAAAFzUkdCAK7OHOkAAAMmaVRYdFhNTDpjb20uYWRvYmUueG1wAAAAAAA8P3hwYWNrZXQgYmVnaW49Iu+7vyIgaWQ9Ilc1TTBNcENlaGlIenJlU3pOVGN6a2M5ZCI/PiA8eDp4bXBtZXRhIHhtbG5zOng9ImFkb2JlOm5zOm1ldGEvIiB4OnhtcHRrPSJBZG9iZSBYTVAgQ29yZSA1LjYtYzE0MiA3OS4xNjA5MjQsIDIwMTcvMDcvMTMtMDE6MDY6MzkgICAgICAgICI+IDxyZGY6UkRGIHhtbG5zOnJkZj0iaHR0cDovL3d3dy53My5vcmcvMTk5OS8wMi8yMi1yZGYtc3ludGF4LW5zIyI+IDxyZGY6RGVzY3JpcHRpb24gcmRmOmFib3V0PSIiIHhtbG5zOnhtcD0iaHR0cDovL25zLmFkb2JlLmNvbS94YXAvMS4wLyIgeG1sbnM6eG1wTU09Imh0dHA6Ly9ucy5hZG9iZS5jb20veGFwLzEuMC9tbS8iIHhtbG5zOnN0UmVmPSJodHRwOi8vbnMuYWRvYmUuY29tL3hhcC8xLjAvc1R5cGUvUmVzb3VyY2VSZWYjIiB4bXA6Q3JlYXRvclRvb2w9IkFkb2JlIFBob3Rvc2hvcCBDQyAyMDE4IChXaW5kb3dzKSIgeG1wTU06SW5zdGFuY2VJRD0ieG1wLmlpZDo5N0NENjE5QTVGMDMxMUVCQTEyOEM4RkFDRjZCNEUzMiIgeG1wTU06RG9jdW1lbnRJRD0ieG1wLmRpZDo5N0NENjE5QjVGMDMxMUVCQTEyOEM4RkFDRjZCNEUzMiI+IDx4bXBNTTpEZXJpdmVkRnJvbSBzdFJlZjppbnN0YW5jZUlEPSJ4bXAuaWlkOjk3Q0Q2MTk4NUYwMzExRUJBMTI4QzhGQUNGNkI0RTMyIiBzdFJlZjpkb2N1bWVudElEPSJ4bXAuZGlkOjk3Q0Q2MTk5NUYwMzExRUJBMTI4QzhGQUNGNkI0RTMyIi8+IDwvcmRmOkRlc2NyaXB0aW9uPiA8L3JkZjpSREY+IDwveDp4bXBtZXRhPiA8P3hwYWNrZXQgZW5kPSJyIj8+b46D4wAAAQJQTFRFTGlx+7wFQoX0QoX0QoX0QoX0+7wFQoX0NKhT+7wF6kM16kM1QoX0QoX06kM1QoX0QoX0+7wF6kM1+7wF+7wFQoX06kM1+7wF+7wF6kM1QoX0+7wF6kM16kM1+7wFQoX06kM16kM16kM1+7wFQoX0QoX06kM1QoX0+7wF6kM1+7wF+7wF+7wF6kM16kM1NKhTNKhTNKhTNKhTNKhTNKhTNKhTNKhTNKhTNKhTNKhTNKhTNKhTNKhT2UpIZ3bK84Ya6kM1QoX0+7wFNKhTsLUi4EdBYnnQ7mEp954R84Ad60sy7FIv+a0L+rQI72km9Y8X9pYU8HAj8Xgg+KUO9Ica7VosUT1omwAAAEB0Uk5TABBgMO8Q70BAn0DvgL8Qn89AYGDP378wgIAgv8/fII+fIDDfUK+vcFBwj3CvUI/v37+An3AgYDAQUI+vz5+Pj0pRGAYAACJGSURBVHja7N1rk9tEFgbgLCRQkcEJgmgR2ItswFkv2P9gt2xX7WYmN3Lj//+V9UCoymQutmdkW6f7eb4CXyy9nO5zujV37gAAAAAAAAAAAAAAAAAAAAAAAAAAAAAAAAAAAAAAAAAAAAAAAAAAAAAAAAAAAAAAAAAAAAAAAAAAAAAAAAAAAAAAAAAAAAAAAAAAAAAAAAAAAAAAAAAAAAAAAAAAQCeNio+M/CbQSf11Puu16sxigz/+pbN/e/0f9f12cCRFMa3nVTVc3Mqgqub1tCj8nnCYtXFZN9Vg0bpB1dSllTbsK7nTeh/BvRjkdUWWY2jLeFZPqsWBVZN6Nvbbwy30i7oZLI5ovazW6oIbrJhn9W0bVG0ZrouxNTVsX3cnvUXHrFOsFsOm/W553DXzhgZXU9oXw+W6WHgv6k2mpsbwcXirRSBVLcTwftk8DRXev0ymltPkblRGWDZfuZxuSu1p8l03zweL8AZzq2mU3sh6k9KEiax2vYNFYgZTi2nySO98uEjScK6rReJmTaLplWEySG9vkTwZxspZhqFDRvmk932Gaz0tEtFPr+e8VV/abIkUNr6TRbaamedP7I1vb5G14dxSmqhL53KwYFGVXgUCFt+mJ7zvj1oqwyi+yjAcxGiu+F4swwZLhFBMpPWKTwC4eEjn185DQb2mKW0lTZfXzrW188aVtOMddLXvLJ9bHe+wGaaDW99KNLfuSdsM0y3GRjtG2CFLOhRfnSv9LKI2nqfiK8JEja/GswgjviIM4ivCsKWp+IowOs+IMOIbO8KOdnA4Tl05nUVYY/Hdi4kz0uzfqBG1fWncVGK/TI72ymVD9tu7El8NacL2rlw50s0i7ObXt65shQnL5veQW2HvG62aObjhYAdhV88mv6bCWD2zyzp66s2jjd6z1fORDKyjua2+g1dHNNeP5lac3DjyOtrXK9G80swiRz65oZlFWG4NdkWlCLP77EhwFGHCll/3FhRhlF8UYTSfUYTRfDYTJnl91367OxN2MIsNZspvl4uw09FcW37nQtJtcy8phkeBDcbeU67oXolHhGW071aie6WXRVrc249jaBnNR5y9CsW5LM4tn529sowmbvfZ8tkyGt1ndKM5+PK5EYaY/AkWHN4IfajDBaXsOfscehntbLTpEeZJBN3+OnxlI4ztLzbCHFxh+5vGRthEOEulVz8VJsIZMv1NaSPsfc6tfeXwc1Icjda+QiuLIPnVvtLKQvuKLiVYKysTLh9pRqP9jGY0h28/Oz2ZsH97wVPPr/Zzwv77v4f3vOMpG8lv0vldLiXY+Ii4+V0u737qPZdfouZXghMe/8pvBvldJ/hz73qS+fWSZ5HftU+87fJL2PxKsPwSOb8SnJzGS55TfiVYfomc3+XygbdefgmbXwmWXyLnV4Lll8j5lWD5JXJ+JVh+iZxfCZZfIudXguWXyPmVYPklcn4lWH6JnF8Jll8i51eCw5p7yeXXueiw3D+SXwmWX8LnV4Lll8j5leBwZl5y+f2QL92F4vuT8nueb1XKL3HzK8GR9OVXfi945G82RMmvv58iv5fwV1fkl7j5XSdYOCJovOXy61Cl/JJafiXYAQ4i59eBDvklcn6Xy59kxACYsPk1Du60kfzK76YEGyYZIBE2v8bBHTbxmsvvZj9LSjf5Aof8buUHWdGAJmx+DZO62YD2msuv28Ea0KSfX61oDWgC51crunMa77n8OhUd1tR7Lr+7eSw13VF4z+V3V5/LjQYWYfO7vPud5HSEBpb8+kCHBhZZ5VcjywksIufXiaxunMCyAZZfl4Od4CC7/DrP0QGuEMqvbbATHGSZX9vgY2+AvenyaxtsA0ym+bUNNgEmcn5tg02AiZxf2+CjcQRafh2KDswGWH4dio6r9q7Lbzu+kKbDcwdYft0NDjxBGnrZ5bctj8ySTJAIm1+zpIObednlt03+7OhhF9AmSPLrS9FxuYMkvy3zJ88OyB0k+XUgyxEs5NeBrCOovO6X61VVU9f1rDhzbmh+Zrb+R01V9eT3cl9KlgX0cVSTeno+sde3AIuirieV/PpjDRbQxzWs6rLo37iXX5R1NZRfi2gd6CNU3XlZtPODFuW8kl+daEc4DmXQlOO2f9Zx2Qxyz6/jHI5w7L/w1jdfMm/8bWd1lXV+HeewgN5r5a2L/f/AxXyQbX4tovf/emXbrmpm/YOtcsqml2d+XSzc96s1zLT0jg/9S4/rQY75dbFwv3L8CsdkOjrSvG46yC6/vs6x37KQX3rL/jF/8H1nuHv5XS596X1/MjtDOThW7T1UhruYXycq9yer70AP56Ou/O7jeS+f/LqWZATcxtJ51q3ffjbJJr+GwfvSZFN86373fv1RPcwjvz6QZQScVPH9oAxXWeTXMFgH68Z6zajLz2DU2gmPLudXH0sHK6G180eNiHZW0p3Orz6WDtaN4lsG+V/pMPX86mO1b556fKtZnIdRDtLO73L5g8S1vPlKPb5FrOdRVEnnd7n0cQ4drHTje7sIR8ivPpYRUtLx/WOqNEw3v0ZJ7Ur4FmGU1lVb7awg+V0+kjojpC3mvmXsJzPtJZpfoyQjpC10f+67eS6caH6NktqT6jX+ySiFpzOaJJlfV/vbe0PSLMCDIpUHVAxTzK/vvLclyVtIvWlSa6Reevl1K6mtApzk6rmf2EOapJdfpznakeAZjmGR3mPauI6Ol1+nOVp5MfSeg/Sj56nl12kOBfiy5tU42f/XDhLLrxKsAF8sv1kO/GLmVwlWgLMpv38aD5LKrxJ8W6Xym8BOOGx+Hai8raRuMaTYfL5k09NLKL/uNCjAyc5+ryzCk3TyqwQrwIncO9rFuTtKsfOrBCvAWXSvruxlBc+vEqwAn2n6eT25fpNKfpVgBTir5fP5hxc/v0qwAjwc5/j0xsM08qsE516Aq36ez69fJZFfJfimEjmENc/3Cf4nifw6jnUzhe1veJ+kkWAnorMtwL1x3g/x07tKsAIcePrbz/0xfvdQCc7TJIH8Tvqe470vEwjwz57jrlL4ElbjMZ55kECCfR1rV038/E49xT99ET/APlC5o378/JaeYkLNaCV4N+H/GENv5iF+kODwzWh/pmG3Ahz9jzHkPj5KbpzkLyXtpJRfCXaeMq6h/EqwKw1hzVzel+Cu+ckj3FrsU5SOXyWZYOcptzaS3yQFP1ZpkrStYx7iePrknKfy22aCQ9dghzm6OEN68uTl6enpq5OTk+erKz1f/+NX63/t5ZMn8pvtKtokqTszpKdnsT05ebG6gRcnJ2dRfqr/nFuCTZKOP0N6+uTNOrirVqyD/PqjHMtvygk2SdpKsbfovrtZyd1UkN+9+SvG8pt2gl0LPk4L69nL0+t2uG14fnL68pn8bpVgbay0W1gt193TfZTdy332/bdf/c0T3CTw3SRtrM2m7RXe17+9XR3cN/e//oenmGiCH3t4B2phPXvz6vnqaH4U4mt9oY2lhXVt5T1ieIV4Cw+0sbSwrjiY8e7tqjO++ddXnuilvtTG0sK62LF6/erFqmM++/Vrfa2L7j3UxkpSeYtd79tVR33zi8X0x6Iei9bGut7gZun9/V1n0/s+w9/+3cM9J+g4+KEnd53xzdL7fBXAj9+qwwkMkz715K4xT2nlbC2dYiv6Bw/uGr1du1Ynq2C+19OK3Yq+67ldbbdvYb38bRXRZ/fNlt63okM2snwb62o7DIGfnT5fhWU7HLiRZRR8pe2HwC9frYL79Z+e9507j42CU7LlEPhp5OL7QRn+xW74zs8+zJGQrf4k8O+/rZJxP/vh8L1H8QL8f/bObkeRIwmjLn6FBGpYQIVgVewKehsB72BV3Yzl8Xhtr/b9X2W7x56d7pmeabLIKuKLPOeOy0J5FJERkZk8FnxFBq1Xdn6rKM02WA7ul32dN08C//zHL5U7Us+kBbfBjFO+zt/fqjt/qFwyWCWtsN42eIqrr/H99xje/7tyzCjhtpJgN5gcOjSD9q1v4goPyaGdZ9DvfqsSIF2Ft+TQnjPo//5UJUKqCuv1ksihL86g/SfPKKyXRJNDX5hBp6VvugpvyaHVeW2K4+fk9H0ixaaSXBJNDv0lf3tl5PlDlSQp9oXVkmjmob/kqzno3xPV9+N0VnoDlmJJNPPQb2TQ7/5TJc0itUP/akk0Zwpf8vIujve/VclzTqyatSeHVuYfLza/6JvgVlhrJpp7OV7y7Da7X39B3r+2wknd2qF11Tt3273g85Nm739C3GfHhVPKo7XeLOSZs+f8/z5osucv8+iEVoFUHYv7oZ/z1xjWO7Lnr/PodOrRUs3gKdZ+5p8JD169zTGZYpbUTe8MY33m4xjWrx9wNfFi1ppGkib/egy/tH6/1xROJAgrzWMxjPW8iUT4faOYlUYQVrpeh0bS5yYS4ZcgrNdKopH0iR8Jv5cE4RTK0Uoj0TSS/iQbISfl6E8oPfuNwU/kO8y8+IxSAk+xKE1zTLv4u0LLEE6EYC7HMkSxwcnA6eiMEGyqmZT0weDDACOpZUmH4LKXcDH6iI51WBGCTTFONX1e4CJptH4ILstJkmk06TNptJMQnGQaTfWZNNpNCE6vGp1RfWay0lEITq0azfAGQx3OQnBSQx1ztr8xNsJ+DygJvvn9uBHe0z0CNsIfGZeKpLERzs6YF4uR143wWlLgJC6LpvsbdSPs1eA7TYOn7ktZOdvfuBthp6WsrqbA5dJ5KYvyFaWsy5iIGux7puOEcPHx+RRpp1TF8W2VXL3RTCnL5WLpyRrs9aIOrs7B4AC2sgI7LUZnlJ8pRvvvJLk9noS/GJxGGctnO4n2EZPRyZSxngxe4y8k3hDuKRvc6+IvpG3wXYnBNuDyDQyuQbfEYBPMkYuhrDosMRh/GcqiFcxQFv5iMK3gNA3GXwyuzRSD8ReDdXkoMRh/MZgcGoPxF4PJoVMzGH9vgqNnG8YOBC5lu0kHXGKiI+lZDu1+MPOTGJz6LIeywfiLwcxy6BqMvzc1uHAi8L70YbDc6cIMf2+KmxP+PR8Gq53w5/4NDI7DfYnB+JsiGx8Cd5wIXE6U/nXunzSAj7sq114EVrqrEn9NcKSRZAqZ+6IZwDKCi6HKOzcCqwxV4q8ZPAxV7v0IXEq8m0QDmIGOmPQdCaww0EED2BI7B82kqSODl+abSTSQjLWDmaa01Q6mAA2JNZM6ngS23kxaYYw1TnSCTfFg+b/mBDClaDrBuqVoCtCUohvg3pfAdkvRFLCMFrLES9FjXwLbPddwxhUKWQ0wdCaw1UIWBSwKWYxy6BayZnhiF+1t8NKdwQYLWQUFLMuFLOlt8L07gXv2tsEUsNgFU8XSPd5/RBL8pYp1OWMmOCARf73NYhncBnMECX+bxKPAprbBGyzB3waZeDT4ng4wpOGvp2t1LHaDcyzBX8rQ4RgZis52aIK/lKFlT/fTQcLfhun6FNjGRbOMUOIvZWjdXhIdJPxlGrouBi654wwh/tJH0k2iGcHCX/pIukk0CTT+0kcSTqJJoPG3DTpuBb5tEk0Cjb80gnWTaEY48BeBhZNoRjjwl0awbhLNCAf+IrDwTDS36OBvW/Q8C3yjmWgOEeIvkxy6Bwu5hhJ/ETjS7RxrWsDg2V+HN8ve+nYOKlj4yyiWcDOYFjD+InC8ZjAVLHDsr3uB274nmgoW/iJw1DpWu/NYI2zBX2YpY9Lqm6NUsPAXgYXnsbjIHX8RODItvnc2Rxf8ReDY7Gkh4S8C00qihYS/COx4JJp7sPAXgYVbSQRg/EVg3WkOZjjwF4GFQzAzHPjbPuskBG7jdp0CY/D3BqQhcLkmAOMvAjNQSQDGXwT2GIIJwPiLwLohmACMvwgsHIIJwPiLwLohmACMvwgsHIIJwPiLwLohmACMvwgsHIJ5zAx/EVh3IppjSPiLwMIT0RxDwl8EFg7BBGD8ReAWaOhqDm7Cwl8EboVOI38hN2HhLwLrhmDugsZfBG6JJt464y5o/EXglmjguVGGOPAXgYWHOZiixF8Ebo3od+swxIG/CCw8zJFCD2mzOa5Os9ks//TR+eOP0+q42eCvCbrD4fBhvJ1M6CTRQ3qp7vE0y76bgMxOxw3+mqE/fNj61nhKD+kydqN5fum/kM9HO/w1FJE7d0s6SQmXsB7lLYKr8fPRAH/tsPYqcdRjwZlDexervO7fkR93+GspEm+nDg2OWcY6uYu9p+K6f6Ro22H8/X4gfnAXh2O+VbhwZe9glMf4U/I2c2n8fTsO3/UoY31jqbpKnefxdhbzBf5aouMqle5SwnrFhFnk8vwIfy0xvGMa62sGbnLnIv6SKUb4a2o37CaT7jGF9VLfVdbMkmlaYfwNnPIYO1F4H+kPOftInrPmlkyjCuNvuMI+EulIhwpdNIHPRbNLptjgr6lE+p5WsKMMejFrfsnMdvhrqpzloCId50SDfBN4cGpnyawG+GuJB/mt8CRKciifPWdtrZjijL+mtsLyeXSMiznExygHhzaXzGGAv5bYiwfhGOOUC8JvSMXvjL8EYUvjlAXhNzBjGeAvQdhODq2cQS+KW6yYfIG/pjpK06RzaOEM+nijFZON8NcU24Rz6Iz0+Tatc/wljY4xyyE7xbHLb7li8gH+WqIre9z/2lkO1TnoRXbbFZMt8NdUNVp1I3zlPLRqBn17Aa7qJ+FvfFTPN1z31QfKV7UZ4S+lrFufKdS8i2NuY8Ws8NcUHUmBr7tedoe/rVcA8ReDn3HVY985/rZuMP5icLS77U7427bB+IvB8YaxNvjbssH4i8HxDgVn+NuywfiLwREbSQf8vZ4j/mLwjRpJRzV/jxZXzAh/TSHXD65/wbvaSSSjAmzw1xRqM1nTVLbAC6ML5sK5aPxtC7W56LonksS2wLvM6oIpBvhrif4yjU2w1hZ4kNtdMTP8NUW3l8QmWGsLPLe8Yk74Sym67U2w1hb4aHvFnPGXUnTLm+ADBayIhawd/lLIancTvFLaABfWF0yOv6ZYK22Dx7U+ccMGOCYr/GUb3Oo4tJC/Z4UVs8FfUyi92dBQ68NMAp0pLJhvdIPx90b0hZLoOmeChc4CHzRWzAl/TbH3fSZ4RALdQhKNvyTRDV2MJTPGYb8C/e1KNP5SiW5qlEMmAK90VswKf03x4LiKJVPD2gktmGyAv6aQOdUw9FvDmiktmDn+mmLot4qlUsPaaK2YBf6aYuK2iqVSwyq0FswMf23VsdxWsbhFpxk2+GuKO6dVrJwA3GgIxl9CcKOzWAcCcJMhGH8Jwc2eKFwRgBsMwfhLCG74ROGGANxcCMZfQnAo9y6L0IXigpnhLyG48TI0PWBIhYnDMrRGEXrG4oPrGTosQ0tMQu9YexADiYnosGloiSL0iaUHMXjwV4aWeJQhY+lBDPoKAoc9z6DQRaKYC5FQ6CSF3Uy54yYsSAeF27GWQV9ECQsoY+n2kQoBgY8sO4iFwlNJ64DvUegi5Sw7iEXXWR9pTgYN5NC26AR8zooMGsihdRvBR2rQQB1atxFsvw08YM1BTOzf8T5xJfCZJQcxuXcl8IA5aEgL+/PQvYCvoYkEiSHQSPIkMFtgSG4TfPm3zNgCA5tg3UkO+wKvWHAQlzECc5kO6DJ0JLD9QSzWG8TG0SiWeYEXLDeIzRSBqWEBVSwDAo+oYQFVLGtc/kaw+UlKTjJAdMyfZ5j4EZgiNESni8AUoYEyNAIzSAm3oOdGYOuHkXjUDBrA+iNnlx9HqhAYEFj3NANdJEiQMQIjMCAwAiMwILBjgWkDQwMMERiBAYERGIEBgREYAIERGBAYgREYEBiBERgQGIEBBAXuIzAAERiBAYERGIEBgREYAIERGBAYgbmUEhAYgTlOCDeA44QIDAiMwG9yZLFBfLYIzKV2oIufS+12CAwIbI3lxV/CywyQINYDME+rACAwkxzgkiECt8ac5Qax6fgR+EgjGJLDfBt4e/GnrOgjAUVoa4z9CLxjuUFsln4EPlkXuMpYbxCXvnV/y4eLv2VWUYYGitDGGDoSmCoWpFbDciUwVSxIrYYVILD50wzMYkFszPtb/uBJYDbBEJWuK4F3bIKBLbDqYSSBWUo2wZDaFnjiSmA6wRAT+13gIIFX9gXmPANEZG9f4LEvgUcsOojHnS+BD/YFHrDoIB49+wLvAz7H/iQHt7tDWhl0yBzHD1lFDg1k0Kboh3yQgMAD6tCQUAZdBn3QoqIODcnQEfB3GvRFAo1gZjkgFvcCAk+Cvkigj1RVBSsPYrAW8DfgRqwnTgoC80QSRGGsIPA46JMU+ki0giEOSwWBh0GfVCgITBkLUilhleU67KMkBOZySojAVELgwI9aSBjMsX64mqGEv9PArzpLCEwnCa5mIiHwfeBXSfSRCMGQSAAOLEJLnEciBEMyATjoLJJOGZoQDGkE4NAitEgZmhAMaQTgMvjDNoRgIABrTkI/cRQRmF4wXMFUROBt8JfNRQSuTqxCqEtHxN+Alwk/MVMRmIP9UJd+T0XgYfjHqQjM3TpQl62Kv2WNj1vIGEwdC2rRlfF3WuPrjjICL1iK4LmCVaeGJVTF4qUzqMVYxt+yU+Pzch2Bq5zVCMEJdE9H4G6dDxxUJNFAAm2AXq0P3AiFYK7HAr8JdI05rCdWQgJTiYYwhkL+Bp8l/JOZksCMc0AI/aWSwMN6H6kkMNtgCOFeyd+y5kdupAxmGwwuN8D1xjjkNsFcMgsXs5fyt9YYxxMHLYEHdIPhIpQ6wHWu09HcBD8azGNJ4K6AVQa+DKy7Ca6qBaVoeNvfqZi//2vvDnvSyKIADE9RQZMhYJRso4l8EGJjm7Si7a62X2D3//+mlbXdatrdKgzDnDPP8w8gfXvvnHsHhyt/1GAPwUbRPMMgWL8rngIvHUYL2LvBpOt31VPgpa6C0W/Ei9AP3i0UTCbjcP2++I+qPPZ2oWAS6cTrd4Xfs/vubKFgrL9bdbLOJz5XMJ5/t2m01ke+XIQs2HkwSfpd+R7lg8OQAbvRwQ/2piH7XecQaakbtGD3onna7zBmv7trfu6DmAF7s4EndkYx+50P1vzgbxZRebuQf012g/a70g/KPvYqbMBGWXxTzsPaW/ezv4tb8LHXC1k+/vbj9jtd+9MfxQ140X3jXy+93bj9rr2DDr2Hto0m6O2r6nbQoffQ9879YHS7p8/D0P1OK/gKjhaxXVqETa/au4OOvodeLsKehNv69DsM3m8VO+joe+ilU+PoNg6fB9HzrWQHHX8PvfTaPrptLnbD91vJDroIex/66YmSi1mtMhnFz3fte9DfHCwyOJdwex5++/MMBhV9HYeLhYSRb7A3Cb87X0iYKJvnLPmu+Vscj73OEvDir/ezj/6NJ548d0bzNMrKvpazNP3+ee963z/0nE7Gu/NETqr7Zk4T9Xvvg2U44+I7nKfSr/DLOUrV79KXGw2nqnc6z6ZT5RfUTdbvQ8O/+5efYuecsN7qDoEfXObr95+99PUnC3HspXcyHs5TGlf6PZ2l7PdrxFbimHY6WeOteISVYYz1n/1+3U5fz/ZlHCfdXjnoz1PrV/yVHaXu96v3V1d3s9mn/Ux6mXTKsuz3d+ct0Kn6P73z/P2mNMcIa+m1fgVMvFtY37zSr4AJOsJaOtCvgIn1IuFjv+lXwNRjZxOz+1P9CpiIZ0gP3uhXwNRhspnj83P9CpjNG23o/suRfgVMwEscUZdg/QrYJY64lzn0K2CXOJ5c5ujqV8BseAHeKyzB+hWwBTj0EqxfAVuA4y7B+hWwBTjuEqxfAVuA4y7B+hWwBTjuEqxfAVuA4y7B+hWwBTjuEqxfAVuA4y7B+hWwBTjuEqxfAVuA476UpF8Bx3VRz89qn+tXwFRvVE+/Df5pDv0KOLBOTQE39tex9CvgwPp19Vsc6lfAVK1X3x+XOtCvgKnWtMa/DnfW1a+AqdRJjQE38DaHfgXsDsfzb3Oc61fARLvD0dijJP0K2BFS3KMk/QrYEVLcv3WmXwEHt1N7wMWlfgVMNcb199ucOZZ+BWyCFXeOpV8BRzcptuKdfgVMxAlWc+5j6VfA4TfQJ1sKuHirXwGzrrLYmmP9Cpj1DLfX77YPg/UrYEfAcV9q0K+AbaDjbqL1K2Ab6LibaP0K2AY67iZavwK2gY67idavgG2gq9lEd/UrYGJuoLd0nUO/As7gomiEU/0KmJfrN6Pf2v/cmX4FnMH27kBv98VC/Qo4hUnRGJf6FTAvMyga5Fi/AuZFJ0h7TQq4trMk/Qo4xwPwTtEoR/oVMM/XKRrmQL8CJuQD8MNZ0rF+BUzEB+C6fiFLvwL2ABz3NFi/AvYAHPfNQv0KOIlx0VCn+hUwv9Jvar+b/Gsr+hVwEqO9xga8ufsc+hWwAVbcQZZ+BWyAFXeQpV8BG2DFvZGlXwFnMW16vxu4kaVfAbuBFXcUrV8BpxlgBei36lG0fgVsAF2vQ/0KmB9NiiCO9Ctggh0gbeKnovUrYAdIcQ+T9CvgNAZF0baC9StgB8Bxf6dSvwJ2ABz3Qod+BazfuAXrV8D6jVuwfgXsAkfcK1n6FbB+4xasXwHrN27B+hWwfuMWrF8B6zduwfoVsH7jFqxfAes3bsH6FbB+4xasXwHrN27B+hWwfptX8LF+BazfuJ55q1K/Ak5jmKjfZxasXwHn6XevSOXVqX4FrN/ADvQr4LaY5uv3VwXrV8BpDIqU3upXwG0wLpI60q+A8+sUaf3XlQ79CjjN8e+kSOznVzr0K2DXN+IeCOtXwI6P4g6j9SvgNOPn/P3+MIzWr4CzKItWeNPVr4ATPv52ipZ4NMrSr4CTGO0UrfHqnX4FnEt/r2iT1/oVsNtXgR129StgtzfiOjvWr4CTnP7uFG10Jy8BO/0N7Pa9wATs9Ciuj18UJmDb58BmEhNw6OnzXtFu+x9EJmDT57j++KwyAbu8EdgnsywBR1x+L7T7dZZ1JTQBm14FdmMRFnAspWotwgK2/FqEEbDl1yIsYJ47fLb8GkcL2PA54ZnwteIE3GzTE526mCXgoEauXv3ydrR9tIAbO7xy9eoZwyx3KwXczOGV3bN9tIDtnh0KI+C6Z892zy+bR/u9HQE3yMDu2b0OAYd9+O3pcZVHYQkLuAkPv/Jd+WqWaZaAt51vR4cSFnDY2ZUGDaQFbPTc5oG0u1kClq+EBYx8PQsLWL5IWMCNnjzLdwNunQsLuAZDB0cbu9pxrUgBu3UV+YLlnXmWgDf36OvO8+ZH0h6GBbyhR98Lj7520gIOaup93xp30jPLsICrXHxLe+e6Z9KWYQFbfEM/Dd98EaiA13/ytfhuze93ttICXmfsPPZXFrY+0XKwJOAVD41snRvyOKxhAatXwwJWL1vbS3seFvCzplZj9TZ1pnXjfQcB//+bCqWpVbPPlm6vLcQC/vnSO/CaYJCF+LMnYgE/feqdXlh6RSxg8VJjxLbTts3iDf5MPLt6L+BWLrz9cuKZN4WPt7PPHwTconX3vl03nNMdFN/cXX0QcPZld3zRs+5mzvh2dt2ijltU7qCc+D2r9gy49j/N7q7yPx7n77Y/Ljs9g6oWL8n7+zez2ezz1ZKAG3+Vqn9vWpblRa9nwQUAAAAAAAAAAAAAAAAAAAAAAAAAAAAAAAAAAAAAAAAAAAAAAAAAAAAAAAAAAAAAAAAAAAAAAAAAAAAAAAAAAAAAAAAAAAAAAAAAAAAAAAAAAAAAAAAAAAAAAAAAAAAAAAAAAAAAAAAAAAAAAAAAAIBW+xtKs9tnTsEWSAAAAABJRU5ErkJggg==;" vertex="1" parent="fFGAgTN2hcNtL7oKuzCr-17">
          <mxGeometry x="141" y="135.00000000000009" width="80" height="80" as="geometry" />
        </mxCell>
        <mxCell id="fFGAgTN2hcNtL7oKuzCr-13" value="storage.js" style="text;html=1;strokeColor=none;fillColor=none;align=center;verticalAlign=middle;whiteSpace=wrap;rounded=0;" vertex="1" parent="fFGAgTN2hcNtL7oKuzCr-17">
          <mxGeometry x="161" y="210.4000000000001" width="40" height="20" as="geometry" />
        </mxCell>
        <mxCell id="fFGAgTN2hcNtL7oKuzCr-15" value="" style="verticalLabelPosition=bottom;html=1;verticalAlign=top;align=center;strokeColor=none;fillColor=#00BEF2;shape=mxgraph.azure.code_file;pointerEvents=1;" vertex="1" parent="fFGAgTN2hcNtL7oKuzCr-17">
          <mxGeometry x="274" y="142.4000000000001" width="69" height="67" as="geometry" />
        </mxCell>
        <mxCell id="fFGAgTN2hcNtL7oKuzCr-16" value="utils.js" style="text;html=1;strokeColor=none;fillColor=none;align=center;verticalAlign=middle;whiteSpace=wrap;rounded=0;" vertex="1" parent="fFGAgTN2hcNtL7oKuzCr-17">
          <mxGeometry x="288.5" y="206.4000000000001" width="40" height="24" as="geometry" />
        </mxCell>
        <mxCell id="fFGAgTN2hcNtL7oKuzCr-21" value="" style="verticalLabelPosition=bottom;html=1;verticalAlign=top;align=center;strokeColor=none;fillColor=#00BEF2;shape=mxgraph.azure.sql_database;" vertex="1" parent="fFGAgTN2hcNtL7oKuzCr-17">
          <mxGeometry x="24" y="142.4" width="60" height="65" as="geometry" />
        </mxCell>
        <mxCell id="fFGAgTN2hcNtL7oKuzCr-18" value="" style="points=[[0,0,0],[0.25,0,0],[0.5,0,0],[0.75,0,0],[1,0,0],[0,1,0],[0.25,1,0],[0.5,1,0],[0.75,1,0],[1,1,0],[0,0.25,0],[0,0.5,0],[0,0.75,0],[1,0.25,0],[1,0.5,0],[1,0.75,0]];outlineConnect=0;fontColor=#232F3E;gradientColor=#4D72F3;gradientDirection=north;fillColor=#3334B9;strokeColor=#ffffff;dashed=0;verticalLabelPosition=bottom;verticalAlign=top;align=center;html=1;fontSize=12;fontStyle=0;aspect=fixed;shape=mxgraph.aws4.resourceIcon;resIcon=mxgraph.aws4.database_migration_service;" vertex="1" parent="fFGAgTN2hcNtL7oKuzCr-38">
          <mxGeometry x="220" y="305" width="78" height="78" as="geometry" />
        </mxCell>
        <mxCell id="fFGAgTN2hcNtL7oKuzCr-26" value="migrate.js" style="text;html=1;strokeColor=none;fillColor=none;align=center;verticalAlign=middle;whiteSpace=wrap;rounded=0;" vertex="1" parent="fFGAgTN2hcNtL7oKuzCr-38">
          <mxGeometry x="239" y="383" width="40" height="20" as="geometry" />
        </mxCell>
        <mxCell id="fFGAgTN2hcNtL7oKuzCr-27" value="" style="strokeColor=#dddddd;shadow=1;strokeWidth=1;rounded=1;absoluteArcSize=1;arcSize=2;" vertex="1" parent="fFGAgTN2hcNtL7oKuzCr-38">
          <mxGeometry x="70" y="305" width="110" height="75" as="geometry" />
        </mxCell>
        <mxCell id="fFGAgTN2hcNtL7oKuzCr-28" value="Cloud&#xa;Storage" style="dashed=0;connectable=0;html=1;fillColor=#5184F3;strokeColor=none;shape=mxgraph.gcp2.hexIcon;prIcon=cloud_storage;part=1;labelPosition=right;verticalLabelPosition=middle;align=left;verticalAlign=middle;spacingLeft=5;fontColor=#999999;fontSize=12;" vertex="1" parent="fFGAgTN2hcNtL7oKuzCr-27">
          <mxGeometry y="0.5" width="44" height="39" relative="1" as="geometry">
            <mxPoint x="5" y="-19.5" as="offset" />
          </mxGeometry>
        </mxCell>
        <mxCell id="fFGAgTN2hcNtL7oKuzCr-29" value="get-google-storage-account.js" style="text;html=1;strokeColor=none;fillColor=none;align=center;verticalAlign=middle;whiteSpace=wrap;rounded=0;" vertex="1" parent="fFGAgTN2hcNtL7oKuzCr-38">
          <mxGeometry x="30" y="383" width="200" height="20" as="geometry" />
        </mxCell>
        <mxCell id="fFGAgTN2hcNtL7oKuzCr-31" value="" style="points=[[0,0,0],[0.25,0,0],[0.5,0,0],[0.75,0,0],[1,0,0],[0,1,0],[0.25,1,0],[0.5,1,0],[0.75,1,0],[1,1,0],[0,0.25,0],[0,0.5,0],[0,0.75,0],[1,0.25,0],[1,0.5,0],[1,0.75,0]];points=[[0,0,0],[0.25,0,0],[0.5,0,0],[0.75,0,0],[1,0,0],[0,1,0],[0.25,1,0],[0.5,1,0],[0.75,1,0],[1,1,0],[0,0.25,0],[0,0.5,0],[0,0.75,0],[1,0.25,0],[1,0.5,0],[1,0.75,0]];outlineConnect=0;fontColor=#232F3E;gradientColor=#F34482;gradientDirection=north;fillColor=#BC1356;strokeColor=#ffffff;dashed=0;verticalLabelPosition=bottom;verticalAlign=top;align=center;html=1;fontSize=12;fontStyle=0;aspect=fixed;shape=mxgraph.aws4.resourceIcon;resIcon=mxgraph.aws4.app_config;" vertex="1" parent="fFGAgTN2hcNtL7oKuzCr-38">
          <mxGeometry x="202.5" y="160" width="81" height="81" as="geometry" />
        </mxCell>
        <mxCell id="fFGAgTN2hcNtL7oKuzCr-32" value="ecosystem.config.js" style="text;html=1;strokeColor=none;fillColor=none;align=center;verticalAlign=middle;whiteSpace=wrap;rounded=0;" vertex="1" parent="fFGAgTN2hcNtL7oKuzCr-38">
          <mxGeometry x="220.5" y="241" width="40" height="20" as="geometry" />
        </mxCell>
        <mxCell id="fFGAgTN2hcNtL7oKuzCr-35" value="" style="html=1;dashed=0;whitespace=wrap;fillColor=#2875E2;strokeColor=#ffffff;points=[[0.005,0.63,0],[0.1,0.2,0],[0.9,0.2,0],[0.5,0,0],[0.995,0.63,0],[0.72,0.99,0],[0.5,1,0],[0.28,0.99,0]];shape=mxgraph.kubernetes.icon;prIcon=api" vertex="1" parent="fFGAgTN2hcNtL7oKuzCr-38">
          <mxGeometry x="70" y="163" width="101" height="79" as="geometry" />
        </mxCell>
        <mxCell id="fFGAgTN2hcNtL7oKuzCr-36" value="app.js(Controller)" style="text;html=1;strokeColor=none;fillColor=none;align=center;verticalAlign=middle;whiteSpace=wrap;rounded=0;" vertex="1" parent="fFGAgTN2hcNtL7oKuzCr-38">
          <mxGeometry x="100.5" y="242" width="40" height="20" as="geometry" />
        </mxCell>
        <mxCell id="fFGAgTN2hcNtL7oKuzCr-19" value="" style="outlineConnect=0;fontColor=#232F3E;gradientColor=none;fillColor=#527FFF;strokeColor=none;dashed=0;verticalLabelPosition=bottom;verticalAlign=top;align=center;html=1;fontSize=12;fontStyle=0;aspect=fixed;pointerEvents=1;shape=mxgraph.aws4.rds_postgresql_instance;" vertex="1" parent="fFGAgTN2hcNtL7oKuzCr-38">
          <mxGeometry x="450" y="50.000000000000114" width="68" height="68" as="geometry" />
        </mxCell>
        <mxCell id="fFGAgTN2hcNtL7oKuzCr-20" value="migrations" style="text;html=1;strokeColor=none;fillColor=none;align=center;verticalAlign=middle;whiteSpace=wrap;rounded=0;" vertex="1" parent="fFGAgTN2hcNtL7oKuzCr-38">
          <mxGeometry x="464" y="120" width="40" height="20" as="geometry" />
        </mxCell>
        <mxCell id="fFGAgTN2hcNtL7oKuzCr-24" value="" style="aspect=fixed;html=1;points=[];align=center;image;fontSize=12;image=img/lib/azure2/general/Image.svg;" vertex="1" parent="fFGAgTN2hcNtL7oKuzCr-38">
          <mxGeometry x="611.12" y="50" width="98.88" height="68" as="geometry" />
        </mxCell>
        <mxCell id="fFGAgTN2hcNtL7oKuzCr-25" value="images" style="text;html=1;strokeColor=none;fillColor=none;align=center;verticalAlign=middle;whiteSpace=wrap;rounded=0;" vertex="1" parent="fFGAgTN2hcNtL7oKuzCr-38">
          <mxGeometry x="640" y="120" width="40" height="20" as="geometry" />
        </mxCell>
        <mxCell id="fFGAgTN2hcNtL7oKuzCr-41" value="" style="shape=image;html=1;verticalAlign=top;verticalLabelPosition=bottom;labelBackgroundColor=#ffffff;imageAspect=0;aspect=fixed;image=https://cdn1.iconfinder.com/data/icons/exempli_gratia_by_scott_copeland-png/128/z_File_FONT.png" vertex="1" parent="fFGAgTN2hcNtL7oKuzCr-53">
          <mxGeometry x="20" y="40" width="60" height="60" as="geometry" />
        </mxCell>
        <mxCell id="fFGAgTN2hcNtL7oKuzCr-42" value="fonts" style="text;html=1;strokeColor=none;fillColor=none;align=center;verticalAlign=middle;whiteSpace=wrap;rounded=0;" vertex="1" parent="fFGAgTN2hcNtL7oKuzCr-53">
          <mxGeometry x="27.100000000000023" y="100" width="40" height="20" as="geometry" />
        </mxCell>
        <mxCell id="fFGAgTN2hcNtL7oKuzCr-43" value="" style="aspect=fixed;html=1;points=[];align=center;image;fontSize=12;image=img/lib/azure2/general/Module.svg;" vertex="1" parent="fFGAgTN2hcNtL7oKuzCr-53">
          <mxGeometry x="27.100000000000023" y="130" width="50" height="50" as="geometry" />
        </mxCell>
        <mxCell id="fFGAgTN2hcNtL7oKuzCr-44" value="node_modules" style="text;html=1;strokeColor=none;fillColor=none;align=center;verticalAlign=middle;whiteSpace=wrap;rounded=0;" vertex="1" parent="fFGAgTN2hcNtL7oKuzCr-53">
          <mxGeometry x="40" y="180" width="40" height="20" as="geometry" />
        </mxCell>
        <mxCell id="fFGAgTN2hcNtL7oKuzCr-46" value="" style="shape=image;html=1;verticalAlign=top;verticalLabelPosition=bottom;labelBackgroundColor=#ffffff;imageAspect=0;aspect=fixed;image=https://cdn4.iconfinder.com/data/icons/social-network-round-gloss-shine/128/docker-icon_copy.png" vertex="1" parent="fFGAgTN2hcNtL7oKuzCr-53">
          <mxGeometry x="22.100000000000023" y="210" width="60" height="60" as="geometry" />
        </mxCell>
        <mxCell id="fFGAgTN2hcNtL7oKuzCr-48" value="Dockerfile" style="text;whiteSpace=wrap;html=1;" vertex="1" parent="fFGAgTN2hcNtL7oKuzCr-53">
          <mxGeometry x="22.09999999999991" y="270" width="80" height="30" as="geometry" />
        </mxCell>
        <mxCell id="fFGAgTN2hcNtL7oKuzCr-49" value="" style="html=1;aspect=fixed;strokeColor=none;shadow=0;align=center;verticalAlign=top;fillColor=#3B8DF1;shape=mxgraph.gcp2.play_start" vertex="1" parent="fFGAgTN2hcNtL7oKuzCr-53">
          <mxGeometry x="22.09999999999991" y="300" width="60" height="60" as="geometry" />
        </mxCell>
        <UserObject label="start.sh" link="start.sh" id="fFGAgTN2hcNtL7oKuzCr-50">
          <mxCell style="text;whiteSpace=wrap;html=1;" vertex="1" parent="fFGAgTN2hcNtL7oKuzCr-53">
            <mxGeometry x="25.800000000000068" y="360" width="60" height="30" as="geometry" />
          </mxCell>
        </UserObject>
        <mxCell id="fFGAgTN2hcNtL7oKuzCr-51" value="" style="aspect=fixed;pointerEvents=1;shadow=0;dashed=0;html=1;strokeColor=none;labelPosition=center;verticalLabelPosition=bottom;verticalAlign=top;align=center;fillColor=#00188D;shape=mxgraph.azure.file" vertex="1" parent="fFGAgTN2hcNtL7oKuzCr-53">
          <mxGeometry x="30.100000000000023" y="390" width="47" height="50" as="geometry" />
        </mxCell>
        <mxCell id="fFGAgTN2hcNtL7oKuzCr-52" value="(dockerignore,&amp;nbsp;package-lock.json,&amp;nbsp;package.json)" style="text;whiteSpace=wrap;html=1;" vertex="1" parent="fFGAgTN2hcNtL7oKuzCr-53">
          <mxGeometry x="2.1000000000000014" y="440" width="100" height="30" as="geometry" />
        </mxCell>
        <mxCell id="fFGAgTN2hcNtL7oKuzCr-54" value="" style="aspect=fixed;html=1;points=[];align=center;image;fontSize=12;image=img/lib/azure2/general/Folder_Blank.svg;" vertex="1" parent="fFGAgTN2hcNtL7oKuzCr-94">
          <mxGeometry x="45.5" y="40" width="69" height="56.00000000000001" as="geometry" />
        </mxCell>
        <mxCell id="fFGAgTN2hcNtL7oKuzCr-55" value="" style="aspect=fixed;html=1;points=[];align=center;image;fontSize=12;image=img/lib/azure2/general/Folder_Blank.svg;" vertex="1" parent="fFGAgTN2hcNtL7oKuzCr-94">
          <mxGeometry x="144.5" y="40" width="69" height="56.00000000000001" as="geometry" />
        </mxCell>
        <mxCell id="fFGAgTN2hcNtL7oKuzCr-56" value="" style="aspect=fixed;html=1;points=[];align=center;image;fontSize=12;image=img/lib/azure2/general/Folder_Blank.svg;" vertex="1" parent="fFGAgTN2hcNtL7oKuzCr-94">
          <mxGeometry x="246.5" y="40" width="69" height="56.00000000000001" as="geometry" />
        </mxCell>
        <mxCell id="fFGAgTN2hcNtL7oKuzCr-57" value="" style="aspect=fixed;html=1;points=[];align=center;image;fontSize=12;image=img/lib/azure2/general/Folder_Blank.svg;" vertex="1" parent="fFGAgTN2hcNtL7oKuzCr-94">
          <mxGeometry x="345.5" y="40" width="69" height="56.00000000000001" as="geometry" />
        </mxCell>
        <mxCell id="fFGAgTN2hcNtL7oKuzCr-58" value="" style="aspect=fixed;html=1;points=[];align=center;image;fontSize=12;image=img/lib/azure2/general/Folder_Blank.svg;" vertex="1" parent="fFGAgTN2hcNtL7oKuzCr-94">
          <mxGeometry x="446.5" y="40" width="69" height="56.00000000000001" as="geometry" />
        </mxCell>
        <mxCell id="fFGAgTN2hcNtL7oKuzCr-59" value="" style="aspect=fixed;html=1;points=[];align=center;image;fontSize=12;image=img/lib/azure2/general/Folder_Blank.svg;" vertex="1" parent="fFGAgTN2hcNtL7oKuzCr-94">
          <mxGeometry x="544.5" y="40" width="69" height="56.00000000000001" as="geometry" />
        </mxCell>
        <mxCell id="fFGAgTN2hcNtL7oKuzCr-60" value="" style="aspect=fixed;html=1;points=[];align=center;image;fontSize=12;image=img/lib/azure2/general/Folder_Blank.svg;" vertex="1" parent="fFGAgTN2hcNtL7oKuzCr-94">
          <mxGeometry x="644.5" y="40" width="69" height="56.00000000000001" as="geometry" />
        </mxCell>
        <mxCell id="fFGAgTN2hcNtL7oKuzCr-61" value="" style="aspect=fixed;html=1;points=[];align=center;image;fontSize=12;image=img/lib/azure2/general/Folder_Blank.svg;" vertex="1" parent="fFGAgTN2hcNtL7oKuzCr-94">
          <mxGeometry x="744.5" y="40" width="69" height="56.00000000000001" as="geometry" />
        </mxCell>
        <mxCell id="fFGAgTN2hcNtL7oKuzCr-63" value="API-AUTHENTICATION" style="text;html=1;strokeColor=none;fillColor=none;align=center;verticalAlign=middle;whiteSpace=wrap;rounded=0;" vertex="1" parent="fFGAgTN2hcNtL7oKuzCr-94">
          <mxGeometry x="63.5" y="106" width="40" height="20" as="geometry" />
        </mxCell>
        <mxCell id="fFGAgTN2hcNtL7oKuzCr-65" value="API-ENTITY" style="text;html=1;strokeColor=none;fillColor=none;align=center;verticalAlign=middle;whiteSpace=wrap;rounded=0;" vertex="1" parent="fFGAgTN2hcNtL7oKuzCr-94">
          <mxGeometry x="160" y="106" width="40" height="20" as="geometry" />
        </mxCell>
        <mxCell id="fFGAgTN2hcNtL7oKuzCr-66" value="API-MERCHANT" style="text;html=1;strokeColor=none;fillColor=none;align=center;verticalAlign=middle;whiteSpace=wrap;rounded=0;" vertex="1" parent="fFGAgTN2hcNtL7oKuzCr-94">
          <mxGeometry x="264.5" y="106" width="40" height="20" as="geometry" />
        </mxCell>
        <mxCell id="fFGAgTN2hcNtL7oKuzCr-67" value="API-PARKING" style="text;html=1;strokeColor=none;fillColor=none;align=center;verticalAlign=middle;whiteSpace=wrap;rounded=0;" vertex="1" parent="fFGAgTN2hcNtL7oKuzCr-94">
          <mxGeometry x="360" y="106" width="40" height="20" as="geometry" />
        </mxCell>
        <mxCell id="fFGAgTN2hcNtL7oKuzCr-68" value="API-PAYMENT" style="text;html=1;strokeColor=none;fillColor=none;align=center;verticalAlign=middle;whiteSpace=wrap;rounded=0;" vertex="1" parent="fFGAgTN2hcNtL7oKuzCr-94">
          <mxGeometry x="452.5" y="106" width="40" height="20" as="geometry" />
        </mxCell>
        <mxCell id="fFGAgTN2hcNtL7oKuzCr-69" value="API-PRICING" style="text;html=1;strokeColor=none;fillColor=none;align=center;verticalAlign=middle;whiteSpace=wrap;rounded=0;" vertex="1" parent="fFGAgTN2hcNtL7oKuzCr-94">
          <mxGeometry x="559" y="106" width="40" height="20" as="geometry" />
        </mxCell>
        <mxCell id="fFGAgTN2hcNtL7oKuzCr-70" value="API-SERVICE" style="text;html=1;strokeColor=none;fillColor=none;align=center;verticalAlign=middle;whiteSpace=wrap;rounded=0;" vertex="1" parent="fFGAgTN2hcNtL7oKuzCr-94">
          <mxGeometry x="659" y="106" width="40" height="20" as="geometry" />
        </mxCell>
        <mxCell id="fFGAgTN2hcNtL7oKuzCr-71" value="API-TRANSACTION" style="text;html=1;strokeColor=none;fillColor=none;align=center;verticalAlign=middle;whiteSpace=wrap;rounded=0;" vertex="1" parent="fFGAgTN2hcNtL7oKuzCr-94">
          <mxGeometry x="759" y="106" width="40" height="20" as="geometry" />
        </mxCell>
        <mxCell id="fFGAgTN2hcNtL7oKuzCr-73" value="" style="aspect=fixed;html=1;points=[];align=center;image;fontSize=12;image=img/lib/azure2/general/Folder_Blank.svg;" vertex="1" parent="fFGAgTN2hcNtL7oKuzCr-94">
          <mxGeometry x="864.5" y="40" width="69" height="56.00000000000001" as="geometry" />
        </mxCell>
        <mxCell id="fFGAgTN2hcNtL7oKuzCr-75" value="SERVICE(...)" style="text;html=1;strokeColor=none;fillColor=none;align=center;verticalAlign=middle;whiteSpace=wrap;rounded=0;" vertex="1" parent="fFGAgTN2hcNtL7oKuzCr-94">
          <mxGeometry x="879" y="106" width="40" height="20" as="geometry" />
        </mxCell>
        <mxCell id="fFGAgTN2hcNtL7oKuzCr-77" value="" style="endArrow=none;dashed=1;html=1;" edge="1" parent="fFGAgTN2hcNtL7oKuzCr-94">
          <mxGeometry width="50" height="50" relative="1" as="geometry">
            <mxPoint x="854.5" y="80" as="sourcePoint" />
            <mxPoint x="824.5" y="80" as="targetPoint" />
          </mxGeometry>
        </mxCell>
        <mxCell id="fFGAgTN2hcNtL7oKuzCr-79" value="" style="shape=image;verticalLabelPosition=bottom;labelBackgroundColor=#ffffff;verticalAlign=top;aspect=fixed;imageAspect=0;image=data:image/png,iVBORw0KGgoAAAANSUhEUgAAAMgAAADICAYAAACtWK6eAAAABHNCSVQICAgIfAhkiAAAAAlwSFlzAAALEwAACxMBAJqcGAAACUVJREFUeJzt3XusHFUBx/FvWygthZYIWoEqUaNEqkklhRgs0ioVMEKMBo2hRNBiY4jGGDRtJKKmGh+JQdRoE2NqQIOvpJAg0IawVjRGjK9SEF+AobYWK+IL2nJ7/eN04+7ZmbM7c/fu7Ox8P8kknbOzM+du+ts5Z+fMGZAkSZIkSZIkSZIkSZIkSZIkSZIkSZIkSZIkSZIkSZIkSZIkSZIkSZIkSZIkNdecqiswy+YDXwYuAOZWXJdxsARYDDwKnAP8s9LaqHJXA9MumctuYEH5j7YZJv1bdWnVFRhjZwG3Y0iSjqm6AiP2Z+DpqitRkQXAGVHZWkJILgOeGXmNVLmNdDcrVlVbnUqtJL+5tR3PJJkmvYmlwbTPJIYkYkCaa0e0vha4DUPSxYA0105gU1T2BgxJFwPSbJ/GkCQZEBmSBAMiyA/JNhoeEgPSHM9G68dG61khuYiGh8SANMe+aP1lGdsYkobxQmG3vfz/szgAHJezXfy5TQN30cCQeAZpljs6/v0cYEPOdp5JGsIzSLd4uMm/gFcktvdMMuEMSK/v0f2Z7CP9uRiSCWZAej2fEIrOz2UK2AqcR/YIb0MyoQxItpXAk2SP7D0I7AEej5anMrZ9HFg04rpriAxIvuXAw8z8zsSvjrrio+SvWM21G1gB3EA4m5R1/HCqM56adkdhEacR/vOM822708BvgM3A4RLvfxr4BPA54I3AauBM4CTyvzxPpPsi464Sx9WYmEkT605m3vwY1XJdgb9rplZXeOyRs4mV73lVV6CAcT7L1ZoBybeJ3vFL4+iXwE1VV2JS2QfJtx04tepKqFqeQaQEAyIlGBApwYBICQZESvBXrHwLgfVM/jWGfcDXcG7eTAYk3xbgyqorMSIrCF8GitjEynd21RUYoSb9rYUYkHxfBI5UXYkRmCL8rcpgEyvfFsKM503og9RhSE0lDEja3qOLGsomlpRgQKQEAyIlGBApwU562vk041es+6quxLgyIPk2Ax+puhIjcgNh8gZFbGLle0vVFRihJv2thRiQfLdXXYERuq3qCowrm1j5NhIelTzp96XvAe6tuhLjyoCk3VN1BVQtm1hSggGREgyIlGBApAQDIiUYECmhjj/zziU8wngQ8ePBlgCnDLc6jbMkWl/E4J/p32nGbcyVORX4LdU/j8Ol3LKbej1WonZNrCsJT0BSPZ0FXFF1JYqoW0Am+nl4DVGrp+LWsQ/SaRtwoM82LyGc1v8I7J/1GjXDUuDFhHtJHumz7XOBy2a9RrOk7gH5OPCrqiuhpJXUOCB1a2JJI2VApAQDIiUYECnBgEgJBkRKMCBSggGREgyIlFD3K+n9vAB4a0b5NuDRAd6/ENiQUb6DMDI1di5wXlT2J4rNsXUB8Kqc135NeoqeRcA1ide/AhzsWD8OOCfaZj/wuz511Jj6GN3Dp1f02X4ecD+9w67vBOYMcLzrM977GHBCzvY7M7Z/imID9G7M2Ed7+VGf916ceO80cFK0/bKMbbYWqOsgVkb7v37I+59Vk97EmiJ8o05F5RcDl/Z57zJgU0b5e4F/Z5SfSZjsOrYYeHufYw3q1cCJiddfP6Tj6KhJDwiEwYyfzyi/kdCEyvNZeofXfxv4Qc7270rsK6uZVsYxwGsTr184pOPoqCYEBMKo33hY9ouAD+dsvwp4R1T2D+ADOdsfC1yVOP659G8ODmptTvkpQzyGjmpKQP5DaBrFNhKC0mke8IWMbT9E/tNg30T/W0lTneeUw9F63lliTZ/3qYSmBATgbuCbUdkCeptfVwNnR2U7ga8n9v3uaP0x4GdR2TrK3U33B+DJjvXlZE+oHQfnpyWOpUiTAgLwQcLMGp3eTOi0Q5ix41PR64cIfYi82TiWAZdEZbfQ+2tQ2c76EeCHUVlWZzwua5U4liJNC8h+4LqM8psI1wQ+SrhFtNMnCTOp5LmK3s/xZkKH/lBUXraz3orW47PFGYRbi9sOAA+UPJY6NC0gEL7ZW1HZS4EvAe+Pyh8CPpPY11x6f726H3iYcKaKLxCW7azHFwcvpPs6TtbZw/mnhqCJAZkmfJMfjMrX0zuy4D0Z23VaQ28n/+aOf38j4z1lOusP0D05xel0T38Un1FaJY6hDE0MCIShFJv7bLOF/k9/XR+tPwvc2rF+N70zqZTprGf1Q9qhmAO8LnotNRxFBTQ1IBAuBD6Y89o+wk/AKSfT+/DLu4AnOtYP0/vLWdnOeitabwdkOd2Pqn6C/L9LBTU5IIfIb+68j3BhMOUKYH5UdkvGdlszysp01lvR+hpCkzCreTVdYv/KMOmjefv5CbALeGVH2d+A7/d53xx6m1dTwH/JvpD3F+C0jvV2Z73InF67j9atPVH0YsJAwLiDbvNqiJoeEOj9tWeK/t/AK+kOFYQr8EWGtV8DXFtg+3Y/pHP4/iWE4fGdWgX2qT6a3MSaifjsUUaZznorWr+W7tG9fyV9zUYFGZDiFtE7kLGMMp31uPl0crTewv7HUNnEKu5yeu/J+Dlh/FXKCcBFUdkG0mO8Yg8SfqWKr/a32f8YMgNSXFbz6m30n+V8HuH22xd2lBXtrE8TzhKX57xuQIbMJlYxLwdeE5XdR/9wQOj8b80oL3plvZVTvhf4fcF9ZVlHuGNy0GXdEI45tgxIMVl3DWZd+8izNaOsaGe9lVN+L8Ppf8wj1GfQZaJbIQZkcPOBd0Zlh4DvFNjHI8A9UVnRzvpDZD8IqFVgHxqQARncpfR2ju+g+2amQWR1yotcWW/3Q2L2P1R42h9Vz2l/pEllQKQEAyIlGBApwYBICQZESjAgUoIBkRIMiJRQ94Fmx5P/MJtO8+md5VAzM+hnGj9ColbqHpAfV10BTTabWFJC3QLihGj1t6vqChRRtybWdwkPojyfwR7CuZzuEb/b6Z75UMUtpXvur18Q7lHppz1Mv8jUSJplG+kear2q2upMhNV0f6ZZj5OYGHVrYkkjZUCkBAMiJRgQKcGASAkGREowIFKCAZESDIiUYECkBAMiJRgQKaFuo3ln6lbgmaorUXMLq67AKDUtIKdXXQHVy6Q3sfZWXYEG2FN1BWbTpJ9BvkV4DuAaJv/LYNSOADso9gAhSZIkSZIkSZIkSZIkSZIkSZIkSZIkSZIkSZIkSZIkSZIkSZIkSZIkSZIkSZJq5H+TW6n7MZy1lgAAAABJRU5ErkJggg==;" vertex="1" parent="fFGAgTN2hcNtL7oKuzCr-94">
          <mxGeometry x="24.5" y="640" width="61" height="61" as="geometry" />
        </mxCell>
        <mxCell id="fFGAgTN2hcNtL7oKuzCr-80" value="cloudbuild-authentication.yaml" style="text;whiteSpace=wrap;html=1;" vertex="1" parent="fFGAgTN2hcNtL7oKuzCr-94">
          <mxGeometry x="20" y="691" width="120" height="30" as="geometry" />
        </mxCell>
        <mxCell id="fFGAgTN2hcNtL7oKuzCr-81" value="" style="aspect=fixed;html=1;points=[];align=center;image;fontSize=12;image=img/lib/mscae/Docker.svg;" vertex="1" parent="fFGAgTN2hcNtL7oKuzCr-94">
          <mxGeometry x="456" y="650" width="50" height="41" as="geometry" />
        </mxCell>
        <mxCell id="fFGAgTN2hcNtL7oKuzCr-82" value=".dockerignore,docker-compose.yml" style="text;whiteSpace=wrap;html=1;" vertex="1" parent="fFGAgTN2hcNtL7oKuzCr-94">
          <mxGeometry x="431" y="691" width="100" height="30" as="geometry" />
        </mxCell>
        <mxCell id="fFGAgTN2hcNtL7oKuzCr-83" value="" style="shape=image;verticalLabelPosition=bottom;labelBackgroundColor=#ffffff;verticalAlign=top;aspect=fixed;imageAspect=0;image=data:image/png,iVBORw0KGgoAAAANSUhEUgAAAMgAAADICAYAAACtWK6eAAAABHNCSVQICAgIfAhkiAAAAAlwSFlzAAALEwAACxMBAJqcGAAACUVJREFUeJzt3XusHFUBx/FvWygthZYIWoEqUaNEqkklhRgs0ioVMEKMBo2hRNBiY4jGGDRtJKKmGh+JQdRoE2NqQIOvpJAg0IawVjRGjK9SEF+AobYWK+IL2nJ7/eN04+7ZmbM7c/fu7Ox8P8kknbOzM+du+ts5Z+fMGZAkSZIkSZIkSZIkSZIkSZIkSZIkSZIkSZIkSZIkSZIkSZIkSZIkSZIkSZIkNdecqiswy+YDXwYuAOZWXJdxsARYDDwKnAP8s9LaqHJXA9MumctuYEH5j7YZJv1bdWnVFRhjZwG3Y0iSjqm6AiP2Z+DpqitRkQXAGVHZWkJILgOeGXmNVLmNdDcrVlVbnUqtJL+5tR3PJJkmvYmlwbTPJIYkYkCaa0e0vha4DUPSxYA0105gU1T2BgxJFwPSbJ/GkCQZEBmSBAMiyA/JNhoeEgPSHM9G68dG61khuYiGh8SANMe+aP1lGdsYkobxQmG3vfz/szgAHJezXfy5TQN30cCQeAZpljs6/v0cYEPOdp5JGsIzSLd4uMm/gFcktvdMMuEMSK/v0f2Z7CP9uRiSCWZAej2fEIrOz2UK2AqcR/YIb0MyoQxItpXAk2SP7D0I7AEej5anMrZ9HFg04rpriAxIvuXAw8z8zsSvjrrio+SvWM21G1gB3EA4m5R1/HCqM56adkdhEacR/vOM822708BvgM3A4RLvfxr4BPA54I3AauBM4CTyvzxPpPsi464Sx9WYmEkT605m3vwY1XJdgb9rplZXeOyRs4mV73lVV6CAcT7L1ZoBybeJ3vFL4+iXwE1VV2JS2QfJtx04tepKqFqeQaQEAyIlGBApwYBICQZESvBXrHwLgfVM/jWGfcDXcG7eTAYk3xbgyqorMSIrCF8GitjEynd21RUYoSb9rYUYkHxfBI5UXYkRmCL8rcpgEyvfFsKM503og9RhSE0lDEja3qOLGsomlpRgQKQEAyIlGBApwU562vk041es+6quxLgyIPk2Ax+puhIjcgNh8gZFbGLle0vVFRihJv2thRiQfLdXXYERuq3qCowrm1j5NhIelTzp96XvAe6tuhLjyoCk3VN1BVQtm1hSggGREgyIlGBApAQDIiUYECmhjj/zziU8wngQ8ePBlgCnDLc6jbMkWl/E4J/p32nGbcyVORX4LdU/j8Ol3LKbej1WonZNrCsJT0BSPZ0FXFF1JYqoW0Am+nl4DVGrp+LWsQ/SaRtwoM82LyGc1v8I7J/1GjXDUuDFhHtJHumz7XOBy2a9RrOk7gH5OPCrqiuhpJXUOCB1a2JJI2VApAQDIiUYECnBgEgJBkRKMCBSggGREgyIlFD3K+n9vAB4a0b5NuDRAd6/ENiQUb6DMDI1di5wXlT2J4rNsXUB8Kqc135NeoqeRcA1ide/AhzsWD8OOCfaZj/wuz511Jj6GN3Dp1f02X4ecD+9w67vBOYMcLzrM977GHBCzvY7M7Z/imID9G7M2Ed7+VGf916ceO80cFK0/bKMbbYWqOsgVkb7v37I+59Vk97EmiJ8o05F5RcDl/Z57zJgU0b5e4F/Z5SfSZjsOrYYeHufYw3q1cCJiddfP6Tj6KhJDwiEwYyfzyi/kdCEyvNZeofXfxv4Qc7270rsK6uZVsYxwGsTr184pOPoqCYEBMKo33hY9ouAD+dsvwp4R1T2D+ADOdsfC1yVOP659G8ODmptTvkpQzyGjmpKQP5DaBrFNhKC0mke8IWMbT9E/tNg30T/W0lTneeUw9F63lliTZ/3qYSmBATgbuCbUdkCeptfVwNnR2U7ga8n9v3uaP0x4GdR2TrK3U33B+DJjvXlZE+oHQfnpyWOpUiTAgLwQcLMGp3eTOi0Q5ix41PR64cIfYi82TiWAZdEZbfQ+2tQ2c76EeCHUVlWZzwua5U4liJNC8h+4LqM8psI1wQ+SrhFtNMnCTOp5LmK3s/xZkKH/lBUXraz3orW47PFGYRbi9sOAA+UPJY6NC0gEL7ZW1HZS4EvAe+Pyh8CPpPY11x6f726H3iYcKaKLxCW7azHFwcvpPs6TtbZw/mnhqCJAZkmfJMfjMrX0zuy4D0Z23VaQ28n/+aOf38j4z1lOusP0D05xel0T38Un1FaJY6hDE0MCIShFJv7bLOF/k9/XR+tPwvc2rF+N70zqZTprGf1Q9qhmAO8LnotNRxFBTQ1IBAuBD6Y89o+wk/AKSfT+/DLu4AnOtYP0/vLWdnOeitabwdkOd2Pqn6C/L9LBTU5IIfIb+68j3BhMOUKYH5UdkvGdlszysp01lvR+hpCkzCreTVdYv/KMOmjefv5CbALeGVH2d+A7/d53xx6m1dTwH/JvpD3F+C0jvV2Z73InF67j9atPVH0YsJAwLiDbvNqiJoeEOj9tWeK/t/AK+kOFYQr8EWGtV8DXFtg+3Y/pHP4/iWE4fGdWgX2qT6a3MSaifjsUUaZznorWr+W7tG9fyV9zUYFGZDiFtE7kLGMMp31uPl0crTewv7HUNnEKu5yeu/J+Dlh/FXKCcBFUdkG0mO8Yg8SfqWKr/a32f8YMgNSXFbz6m30n+V8HuH22xd2lBXtrE8TzhKX57xuQIbMJlYxLwdeE5XdR/9wQOj8b80oL3plvZVTvhf4fcF9ZVlHuGNy0GXdEI45tgxIMVl3DWZd+8izNaOsaGe9lVN+L8Ppf8wj1GfQZaJbIQZkcPOBd0Zlh4DvFNjHI8A9UVnRzvpDZD8IqFVgHxqQARncpfR2ju+g+2amQWR1yotcWW/3Q2L2P1R42h9Vz2l/pEllQKQEAyIlGBApwYBICQZESjAgUoIBkRIMiJRQ94Fmx5P/MJtO8+md5VAzM+hnGj9ColbqHpAfV10BTTabWFJC3QLihGj1t6vqChRRtybWdwkPojyfwR7CuZzuEb/b6Z75UMUtpXvur18Q7lHppz1Mv8jUSJplG+kear2q2upMhNV0f6ZZj5OYGHVrYkkjZUCkBAMiJRgQKcGASAkGREowIFKCAZESDIiUYECkBAMiJRgQKaFuo3ln6lbgmaorUXMLq67AKDUtIKdXXQHVy6Q3sfZWXYEG2FN1BWbTpJ9BvkV4DuAaJv/LYNSOADso9gAhSZIkSZIkSZIkSZIkSZIkSZIkSZIkSZIkSZIkSZIkSZIkSZIkSZIkSZIkSZJq5H+TW6n7MZy1lgAAAABJRU5ErkJggg==;" vertex="1" parent="fFGAgTN2hcNtL7oKuzCr-94">
          <mxGeometry x="144.5" y="640" width="61" height="61" as="geometry" />
        </mxCell>
        <mxCell id="fFGAgTN2hcNtL7oKuzCr-84" value="cloudbuild-merchant.yaml" style="text;whiteSpace=wrap;html=1;" vertex="1" parent="fFGAgTN2hcNtL7oKuzCr-94">
          <mxGeometry x="140" y="691" width="120" height="30" as="geometry" />
        </mxCell>
        <mxCell id="fFGAgTN2hcNtL7oKuzCr-85" value="" style="shape=image;verticalLabelPosition=bottom;labelBackgroundColor=#ffffff;verticalAlign=top;aspect=fixed;imageAspect=0;image=data:image/png,iVBORw0KGgoAAAANSUhEUgAAAMgAAADICAYAAACtWK6eAAAABHNCSVQICAgIfAhkiAAAAAlwSFlzAAALEwAACxMBAJqcGAAACUVJREFUeJzt3XusHFUBx/FvWygthZYIWoEqUaNEqkklhRgs0ioVMEKMBo2hRNBiY4jGGDRtJKKmGh+JQdRoE2NqQIOvpJAg0IawVjRGjK9SEF+AobYWK+IL2nJ7/eN04+7ZmbM7c/fu7Ox8P8kknbOzM+du+ts5Z+fMGZAkSZIkSZIkSZIkSZIkSZIkSZIkSZIkSZIkSZIkSZIkSZIkSZIkSZIkSZIkNdecqiswy+YDXwYuAOZWXJdxsARYDDwKnAP8s9LaqHJXA9MumctuYEH5j7YZJv1bdWnVFRhjZwG3Y0iSjqm6AiP2Z+DpqitRkQXAGVHZWkJILgOeGXmNVLmNdDcrVlVbnUqtJL+5tR3PJJkmvYmlwbTPJIYkYkCaa0e0vha4DUPSxYA0105gU1T2BgxJFwPSbJ/GkCQZEBmSBAMiyA/JNhoeEgPSHM9G68dG61khuYiGh8SANMe+aP1lGdsYkobxQmG3vfz/szgAHJezXfy5TQN30cCQeAZpljs6/v0cYEPOdp5JGsIzSLd4uMm/gFcktvdMMuEMSK/v0f2Z7CP9uRiSCWZAej2fEIrOz2UK2AqcR/YIb0MyoQxItpXAk2SP7D0I7AEej5anMrZ9HFg04rpriAxIvuXAw8z8zsSvjrrio+SvWM21G1gB3EA4m5R1/HCqM56adkdhEacR/vOM822708BvgM3A4RLvfxr4BPA54I3AauBM4CTyvzxPpPsi464Sx9WYmEkT605m3vwY1XJdgb9rplZXeOyRs4mV73lVV6CAcT7L1ZoBybeJ3vFL4+iXwE1VV2JS2QfJtx04tepKqFqeQaQEAyIlGBApwYBICQZESvBXrHwLgfVM/jWGfcDXcG7eTAYk3xbgyqorMSIrCF8GitjEynd21RUYoSb9rYUYkHxfBI5UXYkRmCL8rcpgEyvfFsKM503og9RhSE0lDEja3qOLGsomlpRgQKQEAyIlGBApwU562vk041es+6quxLgyIPk2Ax+puhIjcgNh8gZFbGLle0vVFRihJv2thRiQfLdXXYERuq3qCowrm1j5NhIelTzp96XvAe6tuhLjyoCk3VN1BVQtm1hSggGREgyIlGBApAQDIiUYECmhjj/zziU8wngQ8ePBlgCnDLc6jbMkWl/E4J/p32nGbcyVORX4LdU/j8Ol3LKbej1WonZNrCsJT0BSPZ0FXFF1JYqoW0Am+nl4DVGrp+LWsQ/SaRtwoM82LyGc1v8I7J/1GjXDUuDFhHtJHumz7XOBy2a9RrOk7gH5OPCrqiuhpJXUOCB1a2JJI2VApAQDIiUYECnBgEgJBkRKMCBSggGREgyIlFD3K+n9vAB4a0b5NuDRAd6/ENiQUb6DMDI1di5wXlT2J4rNsXUB8Kqc135NeoqeRcA1ide/AhzsWD8OOCfaZj/wuz511Jj6GN3Dp1f02X4ecD+9w67vBOYMcLzrM977GHBCzvY7M7Z/imID9G7M2Ed7+VGf916ceO80cFK0/bKMbbYWqOsgVkb7v37I+59Vk97EmiJ8o05F5RcDl/Z57zJgU0b5e4F/Z5SfSZjsOrYYeHufYw3q1cCJiddfP6Tj6KhJDwiEwYyfzyi/kdCEyvNZeofXfxv4Qc7270rsK6uZVsYxwGsTr184pOPoqCYEBMKo33hY9ouAD+dsvwp4R1T2D+ADOdsfC1yVOP659G8ODmptTvkpQzyGjmpKQP5DaBrFNhKC0mke8IWMbT9E/tNg30T/W0lTneeUw9F63lliTZ/3qYSmBATgbuCbUdkCeptfVwNnR2U7ga8n9v3uaP0x4GdR2TrK3U33B+DJjvXlZE+oHQfnpyWOpUiTAgLwQcLMGp3eTOi0Q5ix41PR64cIfYi82TiWAZdEZbfQ+2tQ2c76EeCHUVlWZzwua5U4liJNC8h+4LqM8psI1wQ+SrhFtNMnCTOp5LmK3s/xZkKH/lBUXraz3orW47PFGYRbi9sOAA+UPJY6NC0gEL7ZW1HZS4EvAe+Pyh8CPpPY11x6f726H3iYcKaKLxCW7azHFwcvpPs6TtbZw/mnhqCJAZkmfJMfjMrX0zuy4D0Z23VaQ28n/+aOf38j4z1lOusP0D05xel0T38Un1FaJY6hDE0MCIShFJv7bLOF/k9/XR+tPwvc2rF+N70zqZTprGf1Q9qhmAO8LnotNRxFBTQ1IBAuBD6Y89o+wk/AKSfT+/DLu4AnOtYP0/vLWdnOeitabwdkOd2Pqn6C/L9LBTU5IIfIb+68j3BhMOUKYH5UdkvGdlszysp01lvR+hpCkzCreTVdYv/KMOmjefv5CbALeGVH2d+A7/d53xx6m1dTwH/JvpD3F+C0jvV2Z73InF67j9atPVH0YsJAwLiDbvNqiJoeEOj9tWeK/t/AK+kOFYQr8EWGtV8DXFtg+3Y/pHP4/iWE4fGdWgX2qT6a3MSaifjsUUaZznorWr+W7tG9fyV9zUYFGZDiFtE7kLGMMp31uPl0crTewv7HUNnEKu5yeu/J+Dlh/FXKCcBFUdkG0mO8Yg8SfqWKr/a32f8YMgNSXFbz6m30n+V8HuH22xd2lBXtrE8TzhKX57xuQIbMJlYxLwdeE5XdR/9wQOj8b80oL3plvZVTvhf4fcF9ZVlHuGNy0GXdEI45tgxIMVl3DWZd+8izNaOsaGe9lVN+L8Ppf8wj1GfQZaJbIQZkcPOBd0Zlh4DvFNjHI8A9UVnRzvpDZD8IqFVgHxqQARncpfR2ju+g+2amQWR1yotcWW/3Q2L2P1R42h9Vz2l/pEllQKQEAyIlGBApwYBICQZESjAgUoIBkRIMiJRQ94Fmx5P/MJtO8+md5VAzM+hnGj9ColbqHpAfV10BTTabWFJC3QLihGj1t6vqChRRtybWdwkPojyfwR7CuZzuEb/b6Z75UMUtpXvur18Q7lHppz1Mv8jUSJplG+kear2q2upMhNV0f6ZZj5OYGHVrYkkjZUCkBAMiJRgQKcGASAkGREowIFKCAZESDIiUYECkBAMiJRgQKaFuo3ln6lbgmaorUXMLq67AKDUtIKdXXQHVy6Q3sfZWXYEG2FN1BWbTpJ9BvkV4DuAaJv/LYNSOADso9gAhSZIkSZIkSZIkSZIkSZIkSZIkSZIkSZIkSZIkSZIkSZIkSZIkSZIkSZIkSZJq5H+TW6n7MZy1lgAAAABJRU5ErkJggg==;" vertex="1" parent="fFGAgTN2hcNtL7oKuzCr-94">
          <mxGeometry x="244.5" y="640" width="61" height="61" as="geometry" />
        </mxCell>
        <mxCell id="fFGAgTN2hcNtL7oKuzCr-86" value="cloudbuild-payment.yaml" style="text;whiteSpace=wrap;html=1;" vertex="1" parent="fFGAgTN2hcNtL7oKuzCr-94">
          <mxGeometry x="240" y="691" width="120" height="30" as="geometry" />
        </mxCell>
        <mxCell id="fFGAgTN2hcNtL7oKuzCr-87" value="" style="shape=image;verticalLabelPosition=bottom;labelBackgroundColor=#ffffff;verticalAlign=top;aspect=fixed;imageAspect=0;image=data:image/png,iVBORw0KGgoAAAANSUhEUgAAAMgAAADICAYAAACtWK6eAAAABHNCSVQICAgIfAhkiAAAAAlwSFlzAAALEwAACxMBAJqcGAAACUVJREFUeJzt3XusHFUBx/FvWygthZYIWoEqUaNEqkklhRgs0ioVMEKMBo2hRNBiY4jGGDRtJKKmGh+JQdRoE2NqQIOvpJAg0IawVjRGjK9SEF+AobYWK+IL2nJ7/eN04+7ZmbM7c/fu7Ox8P8kknbOzM+du+ts5Z+fMGZAkSZIkSZIkSZIkSZIkSZIkSZIkSZIkSZIkSZIkSZIkSZIkSZIkSZIkSZIkNdecqiswy+YDXwYuAOZWXJdxsARYDDwKnAP8s9LaqHJXA9MumctuYEH5j7YZJv1bdWnVFRhjZwG3Y0iSjqm6AiP2Z+DpqitRkQXAGVHZWkJILgOeGXmNVLmNdDcrVlVbnUqtJL+5tR3PJJkmvYmlwbTPJIYkYkCaa0e0vha4DUPSxYA0105gU1T2BgxJFwPSbJ/GkCQZEBmSBAMiyA/JNhoeEgPSHM9G68dG61khuYiGh8SANMe+aP1lGdsYkobxQmG3vfz/szgAHJezXfy5TQN30cCQeAZpljs6/v0cYEPOdp5JGsIzSLd4uMm/gFcktvdMMuEMSK/v0f2Z7CP9uRiSCWZAej2fEIrOz2UK2AqcR/YIb0MyoQxItpXAk2SP7D0I7AEej5anMrZ9HFg04rpriAxIvuXAw8z8zsSvjrrio+SvWM21G1gB3EA4m5R1/HCqM56adkdhEacR/vOM822708BvgM3A4RLvfxr4BPA54I3AauBM4CTyvzxPpPsi464Sx9WYmEkT605m3vwY1XJdgb9rplZXeOyRs4mV73lVV6CAcT7L1ZoBybeJ3vFL4+iXwE1VV2JS2QfJtx04tepKqFqeQaQEAyIlGBApwYBICQZESvBXrHwLgfVM/jWGfcDXcG7eTAYk3xbgyqorMSIrCF8GitjEynd21RUYoSb9rYUYkHxfBI5UXYkRmCL8rcpgEyvfFsKM503og9RhSE0lDEja3qOLGsomlpRgQKQEAyIlGBApwU562vk041es+6quxLgyIPk2Ax+puhIjcgNh8gZFbGLle0vVFRihJv2thRiQfLdXXYERuq3qCowrm1j5NhIelTzp96XvAe6tuhLjyoCk3VN1BVQtm1hSggGREgyIlGBApAQDIiUYECmhjj/zziU8wngQ8ePBlgCnDLc6jbMkWl/E4J/p32nGbcyVORX4LdU/j8Ol3LKbej1WonZNrCsJT0BSPZ0FXFF1JYqoW0Am+nl4DVGrp+LWsQ/SaRtwoM82LyGc1v8I7J/1GjXDUuDFhHtJHumz7XOBy2a9RrOk7gH5OPCrqiuhpJXUOCB1a2JJI2VApAQDIiUYECnBgEgJBkRKMCBSggGREgyIlFD3K+n9vAB4a0b5NuDRAd6/ENiQUb6DMDI1di5wXlT2J4rNsXUB8Kqc135NeoqeRcA1ide/AhzsWD8OOCfaZj/wuz511Jj6GN3Dp1f02X4ecD+9w67vBOYMcLzrM977GHBCzvY7M7Z/imID9G7M2Ed7+VGf916ceO80cFK0/bKMbbYWqOsgVkb7v37I+59Vk97EmiJ8o05F5RcDl/Z57zJgU0b5e4F/Z5SfSZjsOrYYeHufYw3q1cCJiddfP6Tj6KhJDwiEwYyfzyi/kdCEyvNZeofXfxv4Qc7270rsK6uZVsYxwGsTr184pOPoqCYEBMKo33hY9ouAD+dsvwp4R1T2D+ADOdsfC1yVOP659G8ODmptTvkpQzyGjmpKQP5DaBrFNhKC0mke8IWMbT9E/tNg30T/W0lTneeUw9F63lliTZ/3qYSmBATgbuCbUdkCeptfVwNnR2U7ga8n9v3uaP0x4GdR2TrK3U33B+DJjvXlZE+oHQfnpyWOpUiTAgLwQcLMGp3eTOi0Q5ix41PR64cIfYi82TiWAZdEZbfQ+2tQ2c76EeCHUVlWZzwua5U4liJNC8h+4LqM8psI1wQ+SrhFtNMnCTOp5LmK3s/xZkKH/lBUXraz3orW47PFGYRbi9sOAA+UPJY6NC0gEL7ZW1HZS4EvAe+Pyh8CPpPY11x6f726H3iYcKaKLxCW7azHFwcvpPs6TtbZw/mnhqCJAZkmfJMfjMrX0zuy4D0Z23VaQ28n/+aOf38j4z1lOusP0D05xel0T38Un1FaJY6hDE0MCIShFJv7bLOF/k9/XR+tPwvc2rF+N70zqZTprGf1Q9qhmAO8LnotNRxFBTQ1IBAuBD6Y89o+wk/AKSfT+/DLu4AnOtYP0/vLWdnOeitabwdkOd2Pqn6C/L9LBTU5IIfIb+68j3BhMOUKYH5UdkvGdlszysp01lvR+hpCkzCreTVdYv/KMOmjefv5CbALeGVH2d+A7/d53xx6m1dTwH/JvpD3F+C0jvV2Z73InF67j9atPVH0YsJAwLiDbvNqiJoeEOj9tWeK/t/AK+kOFYQr8EWGtV8DXFtg+3Y/pHP4/iWE4fGdWgX2qT6a3MSaifjsUUaZznorWr+W7tG9fyV9zUYFGZDiFtE7kLGMMp31uPl0crTewv7HUNnEKu5yeu/J+Dlh/FXKCcBFUdkG0mO8Yg8SfqWKr/a32f8YMgNSXFbz6m30n+V8HuH22xd2lBXtrE8TzhKX57xuQIbMJlYxLwdeE5XdR/9wQOj8b80oL3plvZVTvhf4fcF9ZVlHuGNy0GXdEI45tgxIMVl3DWZd+8izNaOsaGe9lVN+L8Ppf8wj1GfQZaJbIQZkcPOBd0Zlh4DvFNjHI8A9UVnRzvpDZD8IqFVgHxqQARncpfR2ju+g+2amQWR1yotcWW/3Q2L2P1R42h9Vz2l/pEllQKQEAyIlGBApwYBICQZESjAgUoIBkRIMiJRQ94Fmx5P/MJtO8+md5VAzM+hnGj9ColbqHpAfV10BTTabWFJC3QLihGj1t6vqChRRtybWdwkPojyfwR7CuZzuEb/b6Z75UMUtpXvur18Q7lHppz1Mv8jUSJplG+kear2q2upMhNV0f6ZZj5OYGHVrYkkjZUCkBAMiJRgQKcGASAkGREowIFKCAZESDIiUYECkBAMiJRgQKaFuo3ln6lbgmaorUXMLq67AKDUtIKdXXQHVy6Q3sfZWXYEG2FN1BWbTpJ9BvkV4DuAaJv/LYNSOADso9gAhSZIkSZIkSZIkSZIkSZIkSZIkSZIkSZIkSZIkSZIkSZIkSZIkSZIkSZIkSZJq5H+TW6n7MZy1lgAAAABJRU5ErkJggg==;" vertex="1" parent="fFGAgTN2hcNtL7oKuzCr-94">
          <mxGeometry x="331" y="640" width="61" height="61" as="geometry" />
        </mxCell>
        <mxCell id="fFGAgTN2hcNtL7oKuzCr-88" value="cloudbuild-staging.yaml" style="text;whiteSpace=wrap;html=1;" vertex="1" parent="fFGAgTN2hcNtL7oKuzCr-94">
          <mxGeometry x="326.5" y="691" width="120" height="30" as="geometry" />
        </mxCell>
        <mxCell id="fFGAgTN2hcNtL7oKuzCr-89" value="" style="aspect=fixed;html=1;points=[];align=center;image;fontSize=12;image=img/lib/azure2/general/File.svg;" vertex="1" parent="fFGAgTN2hcNtL7oKuzCr-94">
          <mxGeometry x="612.5" y="651.57" width="32" height="39.43" as="geometry" />
        </mxCell>
        <mxCell id="fFGAgTN2hcNtL7oKuzCr-90" value=".gitignore, package-lock.json,&amp;nbsp;README.md" style="text;html=1;strokeColor=none;fillColor=none;align=center;verticalAlign=middle;whiteSpace=wrap;rounded=0;" vertex="1" parent="fFGAgTN2hcNtL7oKuzCr-94">
          <mxGeometry x="613.5" y="701" width="40" height="20" as="geometry" />
        </mxCell>
        <mxCell id="fFGAgTN2hcNtL7oKuzCr-92" value="" style="shape=image;html=1;verticalAlign=top;verticalLabelPosition=bottom;labelBackgroundColor=#ffffff;imageAspect=0;aspect=fixed;image=https://cdn2.iconfinder.com/data/icons/stilllife/128x128/apps/gnome-terminal.png" vertex="1" parent="fFGAgTN2hcNtL7oKuzCr-94">
          <mxGeometry x="724.5" y="650" width="50" height="50" as="geometry" />
        </mxCell>
        <UserObject label="version.sh" link="version.sh" id="fFGAgTN2hcNtL7oKuzCr-93">
          <mxCell style="text;whiteSpace=wrap;html=1;" vertex="1" parent="fFGAgTN2hcNtL7oKuzCr-94">
            <mxGeometry x="719" y="691" width="80" height="30" as="geometry" />
          </mxCell>
        </UserObject>
      </root>
    </mxGraphModel>
  </diagram>
</mxfile>
